<svg width="21" height="21" viewBox="0 0 21 21" fill="none" xmlns="http://www.w3.org/2000/svg">
<g filter="url(#filter0_i_237_30694)">
<path d="M10.4551 20.5C4.93223 20.5 0.455078 16.0228 0.455078 10.5C0.455078 4.97715 4.93223 0.5 10.4551 0.5C15.9779 0.5 20.4551 4.97715 20.4551 10.5C20.4551 16.0228 15.9779 20.5 10.4551 20.5Z" fill="url(#paint0_linear_237_30694)"/>
</g>
<path d="M10.4552 17.5418C12.3362 17.5418 14.1046 16.8095 15.4345 15.4793C16.7644 14.1493 17.4971 12.381 17.4971 10.4999C17.4971 8.61889 16.7647 6.8505 15.4345 5.52059C14.1046 4.19067 12.3362 3.45801 10.4552 3.45801C8.57412 3.45801 6.80573 4.19038 5.47582 5.52059C4.1459 6.8505 3.41324 8.61889 3.41324 10.4999C3.41324 12.381 4.14561 14.1493 5.47582 15.4793C6.80573 16.8092 8.57412 17.5418 10.4552 17.5418ZM10.4552 6.82862C12.4796 6.82862 14.1265 8.47549 14.1265 10.4999C14.1265 12.5244 12.4796 14.1712 10.4552 14.1712C8.43072 14.1712 6.78385 12.5244 6.78385 10.4999C6.78385 8.47549 8.43072 6.82862 10.4552 6.82862Z" fill="url(#paint1_linear_237_30694)"/>
<defs>
<filter id="filter0_i_237_30694" x="0.455078" y="0.5" width="20" height="20" filterUnits="userSpaceOnUse" color-interpolation-filters="sRGB">
<feFlood flood-opacity="0" result="BackgroundImageFix"/>
<feBlend mode="normal" in="SourceGraphic" in2="BackgroundImageFix" result="shape"/>
<feColorMatrix in="SourceAlpha" type="matrix" values="0 0 0 0 0 0 0 0 0 0 0 0 0 0 0 0 0 0 127 0" result="hardAlpha"/>
<feOffset/>
<feGaussianBlur stdDeviation="6.60954"/>
<feComposite in2="hardAlpha" operator="arithmetic" k2="-1" k3="1"/>
<feColorMatrix type="matrix" values="0 0 0 0 0 0 0 0 0 0 0 0 0 0 0 0 0 0 0.27 0"/>
<feBlend mode="normal" in2="shape" result="effect1_innerShadow_237_30694"/>
</filter>
<linearGradient id="paint0_linear_237_30694" x1="10.4551" y1="0.5" x2="10.4551" y2="20.5" gradientUnits="userSpaceOnUse">
<stop stop-color="#232323"/>
<stop offset="1"/>
</linearGradient>
<linearGradient id="paint1_linear_237_30694" x1="10.4552" y1="3.45801" x2="10.4552" y2="17.5418" gradientUnits="userSpaceOnUse">
<stop stop-color="#FF0B0B"/>
<stop offset="0.0625" stop-color="#FF1A0B"/>
<stop offset="0.125" stop-color="#FE2A0C"/>
<stop offset="0.1875" stop-color="#FE390C"/>
<stop offset="0.25" stop-color="#FE480C"/>
<stop offset="0.3125" stop-color="#FD570C"/>
<stop offset="0.375" stop-color="#FD670D"/>
<stop offset="0.4375" stop-color="#FD760D"/>
<stop offset="0.5" stop-color="#FD850D"/>
<stop offset="0.5625" stop-color="#FC940D"/>
<stop offset="0.625" stop-color="#FCA40E"/>
<stop offset="0.6875" stop-color="#FCB30E"/>
<stop offset="0.75" stop-color="#FBC20E"/>
<stop offset="0.8125" stop-color="#FBD10E"/>
<stop offset="0.875" stop-color="#FBE10F"/>
<stop offset="0.9375" stop-color="#FAF00F"/>
<stop offset="1" stop-color="#FAFF0F"/>
</linearGradient>
</defs>
</svg>
