<svg width="21" height="21" viewBox="0 0 21 21" fill="none" xmlns="http://www.w3.org/2000/svg">
<path d="M10.5 0.418491C16.0172 0.418491 20.5608 4.96208 20.5608 10.4793C20.5608 16.0371 16.0172 20.5401 10.5 20.5401C4.94222 20.5401 0.439193 16.0371 0.439193 10.4793C0.439193 4.96208 4.94222 0.418491 10.5 0.418491ZM15.1247 7.27444C15.1653 7.15274 15.1653 7.03104 15.1247 6.86877C15.1247 6.78763 15.0436 6.66593 15.003 6.62536C14.8813 6.50366 14.6785 6.50366 14.5973 6.50366C14.2322 6.50366 13.6237 6.7065 10.8245 7.88296C9.85092 8.28864 7.90366 9.09999 4.98278 10.3982C4.49597 10.601 4.25256 10.7633 4.212 10.9661C4.17143 11.2907 4.69881 11.4124 5.30733 11.6152C5.83471 11.7775 6.52436 11.9803 6.88947 11.9803C7.21401 11.9803 7.57912 11.8586 7.9848 11.5746C10.7028 9.70851 12.1227 8.77545 12.2038 8.77545C12.285 8.77545 12.3661 8.73488 12.4067 8.77545C12.4878 8.85659 12.4878 8.93772 12.4473 8.97829C12.4067 9.18113 9.85092 11.5341 9.68864 11.6963C9.1207 12.2643 8.47161 12.6294 9.48581 13.2785C10.3377 13.8464 10.8245 14.2115 11.717 14.7795C12.285 15.1446 12.7312 15.5908 13.2992 15.5503C13.5832 15.5097 13.8671 15.2663 13.9888 14.4955C14.3539 12.7511 15.003 8.85659 15.1247 7.27444Z" fill="white"/>
</svg>
